<?xml version="1.0" encoding="UTF-8"?>
<svg id="Calque_1" data-name="Calque 1" xmlns="http://www.w3.org/2000/svg" viewBox="0 0 841.89 595.28">
  <defs>
    <style>
      .cls-1 {
        fill: #361251;
      }
    </style>
  </defs>
  <path class="cls-1" d="m420.94,470.34l-40.06-69.65c-24.97-8.12-47.35-24.02-63.31-45.04-17.22-22.68-26.31-49.76-26.31-78.3,0-9.17.98-18.36,2.93-27.38l-49.14-85.43h111.95c19.45-11.04,41.5-16.87,63.95-16.87s44.5,5.83,63.95,16.87h111.95l-49.14,85.43c1.94,9.02,2.93,18.21,2.93,27.38,0,28.55-9.1,55.62-26.31,78.3-15.96,21.02-38.34,36.92-63.31,45.04l-40.06,69.65Zm-146.73-288.94l37.93,65.94-.8,3.28c-2.13,8.78-3.21,17.77-3.21,26.73,0,49.64,33.23,94.12,80.8,108.18l3.24.96,28.77,50.02,28.77-50.02,3.24-.96c47.58-14.06,80.8-58.54,80.8-108.18,0-8.96-1.08-17.95-3.21-26.73l-.8-3.28,37.93-65.94h-87.36l-1.99-1.18c-17.33-10.27-37.18-15.69-57.38-15.69s-40.05,5.43-57.38,15.69l-1.99,1.18h-87.36Z"/>
  <path class="cls-1" d="m487.83,246.78h-70.64s-.08,0-.08,0v64.31l-53.96-64.31h-17.54v87.7h16.08v-64.31l54.08,64.31h17.54v-30.2l.32.11,54.2-.12c9.38,0,17.05-7.67,17.05-16.93v-23.63c0-9.26-7.67-16.93-17.05-16.93Zm.85,40.56c0,.49-.36.85-.85.85h-53.71c-.4,0-.71-.25-.81-.61v-24.11c.1-.36.41-.61.81-.61h53.71c.49,0,.85.37.85.85v23.63Z"/>
</svg>